<svg width="14" height="14" viewBox="0 0 14 14" fill="none" xmlns="http://www.w3.org/2000/svg">
<path d="M12.6477 13.7713L8.19318 9.31677C7.79545 9.63495 7.33807 9.88684 6.82102 10.0724C6.30398 10.2581 5.75379 10.3509 5.17045 10.3509C3.72538 10.3509 2.5025 9.85052 1.50182 8.84984C0.500606 7.84862 0 6.62548 0 5.1804C0 3.73533 0.500606 2.51218 1.50182 1.51097C2.5025 0.51029 3.72538 0.00994873 5.17045 0.00994873C6.61553 0.00994873 7.83867 0.51029 8.83989 1.51097C9.84057 2.51218 10.3409 3.73533 10.3409 5.1804C10.3409 5.76374 10.2481 6.31393 10.0625 6.83097C9.87689 7.34802 9.625 7.8054 9.30682 8.20313L13.7812 12.6776C13.9271 12.8234 14 13.0024 14 13.2145C14 13.4266 13.9205 13.6122 13.7614 13.7713C13.6155 13.9171 13.4299 13.9901 13.2045 13.9901C12.9792 13.9901 12.7936 13.9171 12.6477 13.7713ZM5.17045 8.75995C6.16477 8.75995 7.01008 8.41207 7.70636 7.71631C8.40212 7.02002 8.75 6.17472 8.75 5.1804C8.75 4.18609 8.40212 3.34078 7.70636 2.64449C7.01008 1.94874 6.16477 1.60086 5.17045 1.60086C4.17614 1.60086 3.33083 1.94874 2.63455 2.64449C1.93879 3.34078 1.59091 4.18609 1.59091 5.1804C1.59091 6.17472 1.93879 7.02002 2.63455 7.71631C3.33083 8.41207 4.17614 8.75995 5.17045 8.75995Z" fill="#283618"/>
</svg>
